<svg width="28" height="27" viewBox="0 0 28 27" fill="none" xmlns="http://www.w3.org/2000/svg">
<rect x="1.75" y="1.75" width="24.5" height="23.5" fill="white" stroke="#45536F" stroke-width="1.5"/>
<rect x="23" y="5" width="5" height="17" fill="white"/>
<rect y="5" width="5" height="17" fill="white"/>
<rect x="5" width="18" height="4" fill="white"/>
<rect x="5" y="23" width="18" height="4" fill="white"/>
<path d="M11.915 3.50488C13.3042 2.71253 15.0154 2.76918 16.3584 3.6748L20.6162 6.54785V4.66992C20.6163 4.1816 21.0125 3.78711 21.5 3.78711C21.9875 3.78711 22.3837 4.1816 22.3838 4.66992V7.74805C23.4307 8.54213 24.0498 9.78103 24.0498 11.1055V18.834C24.0498 21.1587 22.1581 23.0498 19.833 23.0498H8.16699C5.84189 23.0498 3.9502 21.1587 3.9502 18.834V11.1055C3.95023 9.70079 4.64485 8.39531 5.80859 7.61035L11.6416 3.6748L11.915 3.50488ZM14 4.71777C13.5829 4.71777 13.1659 4.82545 12.7891 5.04102L12.6299 5.13965L6.7959 9.07617C6.12 9.5318 5.71683 10.29 5.7168 11.1055V18.834C5.7168 20.1844 6.81626 21.2832 8.16699 21.2832H19.833C21.1837 21.2832 22.2832 20.1844 22.2832 18.834V11.1055C22.2832 10.3408 21.9286 9.62737 21.3271 9.16504L21.2041 9.07617L15.3701 5.13965C14.9535 4.85795 14.4767 4.71777 14 4.71777ZM15.667 11.2852C16.6136 11.2853 17.3838 12.0554 17.3838 13.002V16.335C17.3836 17.2813 16.6135 18.0506 15.667 18.0508H12.333C11.3865 18.0506 10.6164 17.2813 10.6162 16.335V13.002C10.6162 12.0554 11.3864 11.2853 12.333 11.2852H15.667ZM12.3838 16.2842H15.6162V13.0518H12.3838V16.2842Z" fill="#45536F" stroke="#45536F" stroke-width="0.1"/>
</svg>
