<svg width="22" height="23" viewBox="0 0 22 23" fill="none" xmlns="http://www.w3.org/2000/svg">
<path d="M18.1738 7.66699C20.284 7.66699 22 5.94766 22 3.83349C22 1.71932 20.284 0 18.1738 0C16.0637 0 14.3476 1.71932 14.3476 3.83349C14.3476 5.94766 16.0637 7.66699 18.1738 7.66699ZM18.1738 0.958373C19.7559 0.958373 21.0435 2.24834 21.0435 3.83349C21.0435 5.41864 19.7559 6.70861 18.1738 6.70861C16.5917 6.70861 15.3042 5.41864 15.3042 3.83349C15.3042 2.24834 16.5917 0.958373 18.1738 0.958373ZM20.0745 12.1963L19.4345 9.43998C19.1256 9.50994 18.8071 9.55115 18.4818 9.5684L19.1418 12.4128L20.0496 16.3278C20.1491 16.7897 20.042 17.2689 19.7588 17.6398C19.4795 18.0011 19.0663 18.2091 18.6253 18.2091H2.41665C1.97569 18.2091 1.56246 18.0011 1.28506 17.6398C1.00097 17.268 0.893834 16.7897 0.989489 16.3364L3.12354 7.13796C3.89834 3.49902 6.94016 0.958373 10.5215 0.958373C11.3833 0.958373 12.2126 1.10884 12.9874 1.38293C13.1271 1.0868 13.2887 0.804075 13.4743 0.538606C12.5512 0.190716 11.5574 0 10.5215 0C6.48484 0 3.05754 2.85308 2.19091 6.92904L0.0568573 16.1275C-0.100016 16.8655 0.0712056 17.6283 0.527478 18.2244C0.988532 18.8234 1.6782 19.1665 2.41761 19.1665H5.8363C6.2811 21.3506 8.21236 23 10.5224 23C12.8325 23 14.7637 21.3506 15.2085 19.1665H18.6282C19.3666 19.1665 20.0553 18.8234 20.5202 18.2235C20.9746 17.6274 21.1448 16.8635 20.9861 16.1189L20.0764 12.1953L20.0745 12.1963ZM10.5215 22.0426C8.7442 22.0426 7.25868 20.8168 6.83111 19.1675H14.2118C13.7842 20.8168 12.2997 22.0426 10.5215 22.0426Z" fill="black"/>
</svg>
